{"title":"The Man Who Knew too Much(1956)MP-4[DaScubaDude]","uid":12357437,"size":1206470664,"categoryP":"video","categoryS":"movies","magnet":"?xt=urn:btih:4f46677365c995ce7611beba7115a7bbded8c010&amp;dn=The+Man+Who+Knew+too+Much%281956%29MP-4%5BDaScubaDude%5D&amp;tr=udp%3A%2F%2Ftracker.openbittorrent.com%3A80&amp;tr=udp%3A%2F%2Fopen.demonii.com%3A1337&amp;tr=udp%3A%2F%2Ftracker.coppersurfer.tk%3A6969&amp;tr=udp%3A%2F%2Fexodus.desync.com%3A6969","seeders":8,"leechers":1,"uploader":"dascuba","files":1,"time":1441491995,"description":"The Man Who Knew Too Much (1956)\nPG  |  120 min  |  Thriller  |  1 June 1956 (USA)\n7.5 Your rating:   -/10   Ratings: 7.5/10 from 38,642 users   \nReviews: 189 user | 73 critic\nA family vacationing in Morocco accidentally stumble on to an assassination plot and the conspirators are determined to prevent them from interfering.\n\nDirector: Alfred Hitchcock\nWriters: John Michael Hayes (screenplay), Charles Bennett (based on a story by), 2 more credits Â»\nStars: James Stewart, Doris Day, Brenda de Banzie \n\nGeneral\nComplete name                : C:The Man Who Knew too MuchMANWHOKNEW_Title1.mp4\nFormat                                   : MPEG-4\nFormat profile                           : Base Media\nCodec ID                                 : isom\nFile size                                : 1.12 GiB\nDuration                                 : 2h 0mn\nOverall bit rate                         : 1 338 Kbps\nMovie name                               : DVD\nWriting application                      : Lavf54.6.100\n\nVideo\nID                                       : 1\nFormat                                   : AVC\nFormat/Info                              : Advanced Video Codec\nFormat profile                           : Baseline@L3\nFormat settings, CABAC                   : No\nFormat settings, ReFrames                : 6 frames\nCodec ID                                 : avc1\nCodec ID/Info                            : Advanced Video Coding\nDuration                                 : 2h 0mn\nBit rate                                 : 1 198 Kbps\nWidth                                    : 1 280 pixels\nHeight                                   : 720 pixels\nDisplay aspect ratio                     : 16:9\nOriginal display aspect ratio            : 16:9\nFrame rate mode                          : Constant\nFrame rate                               : 29.970 fps\nColor space                              : YUV\nChroma subsampling                       : 4:2:0\nBit depth                                : 8 bits\nScan type                                : Progressive\nBits/(Pixel*Frame)                       : 0.043\nStream size                              : 1.01 GiB (89%)\n\nAudio\nID                                       : 2\nFormat                                   : AAC\nFormat/Info                              : Advanced Audio Codec\nFormat profile                           : LC\nCodec ID                                 : 40\nDuration                                 : 2h 0mn\nBit rate mode                            : Constant\nBit rate                                 : 132 Kbps\nChannel(s)                               : 2 channels\nChannel positions                        : Front: L R\nSampling rate                            : 44.1 KHz\nCompression mode                         : Lossy\nStream size                              : 115 MiB (10%)","torrent":{"xt":"urn:btih:4f46677365c995ce7611beba7115a7bbded8c010","amp;dn":"The+Man+Who+Knew+too+Much%281956%29MP-4%5BDaScubaDude%5D","amp;tr":["udp%3A%2F%2Ftracker.openbittorrent.com%3A80","udp%3A%2F%2Fopen.demonii.com%3A1337","udp%3A%2F%2Ftracker.coppersurfer.tk%3A6969","udp%3A%2F%2Fexodus.desync.com%3A6969"],"infoHash":"4f46677365c995ce7611beba7115a7bbded8c010","infoHashBuffer":{"type":"Buffer","data":[79,70,103,115,101,201,149,206,118,17,190,186,113,21,167,187,222,216,192,16]},"announce":[],"urlList":[]}}